<?xml version="1.0" encoding="iso-8859-1"?>
<!-- Generator: Adobe Illustrator 19.0.0, SVG Export Plug-In . SVG Version: 6.00 Build 0)  -->
<svg version="1.1" id="Capa_1" xmlns="http://www.w3.org/2000/svg" xmlns:xlink="http://www.w3.org/1999/xlink" x="0px" y="0px"
	 viewBox="0 0 512 512" style="enable-background:new 0 0 512 512;" xml:space="preserve">
<g>
	<g>
		<g>
			<path d="M437.02,74.98C388.668,26.628,324.38,0,256,0S123.333,26.628,74.981,74.98C26.629,123.333,0,187.62,0,256
				s26.629,132.667,74.98,181.019C123.333,485.371,187.62,512,256,512s132.668-26.629,181.02-74.98
				C485.371,388.667,512,324.38,512,256S485.371,123.333,437.02,74.98z M256,497C123.112,497,15,388.888,15,256S123.112,15,256,15
				s241,108.112,241,241S388.888,497,256,497z"/>
			<polygon points="202.622,109.022 202.622,261.425 217.622,261.425 217.622,138.973 257.667,168.923 266.651,156.912 			"/>
			<rect x="202.62" y="291.55" width="15" height="16.801"/>
			<path d="M411.01,233.663L177.622,59.105v406.267L411.01,290.815V233.663z M192.622,89.056l198.365,148.363L192.622,385.782
				V89.056z M396.01,283.302l-203.388,152.12v-30.908l203.388-152.12V283.302z"/>
			<path d="M421.234,94.077c-21.191-21.191-45.735-37.801-72.95-49.371l-5.868,13.805c25.437,10.813,48.387,26.348,68.211,46.172
				c19.881,19.88,35.445,42.9,46.262,68.421l13.811-5.853C459.127,139.947,442.484,115.327,421.234,94.077z"/>
			<path d="M480.33,194.737l-14.443,4.047c1.988,7.097,3.63,14.394,4.88,21.688l14.785-2.533
				C484.214,210.136,482.458,202.33,480.33,194.737z"/>
			<path d="M328.065,461.825l4.857,14.191c30.561-10.461,58.179-27.032,82.087-49.253l-10.213-10.987
				C382.439,436.556,356.622,452.049,328.065,461.825z"/>
			<path d="M50.276,197.455l-14.418-4.141c-5.949,20.715-8.966,42.283-8.966,64.105c0,60.473,23.192,117.634,65.305,160.955
				l10.756-10.456c-39.376-40.504-61.061-93.953-61.061-150.499C41.893,236.998,44.713,216.823,50.276,197.455z"/>
			<path d="M69.745,151.121l-13.049-7.398c-3.341,5.891-6.452,11.998-9.25,18.152l13.656,6.207
				C63.715,162.333,66.623,156.626,69.745,151.121z"/>
		</g>
	</g>
</g>
<g>
</g>
<g>
</g>
<g>
</g>
<g>
</g>
<g>
</g>
<g>
</g>
<g>
</g>
<g>
</g>
<g>
</g>
<g>
</g>
<g>
</g>
<g>
</g>
<g>
</g>
<g>
</g>
<g>
</g>
</svg>
